<mxfile host="Electron" modified="2024-05-28T01:14:57.907Z" agent="Mozilla/5.0 (Windows NT 10.0; Win64; x64) AppleWebKit/537.36 (KHTML, like Gecko) draw.io/24.0.4 Chrome/120.0.6099.109 Electron/28.1.0 Safari/537.36" etag="Z6XfiaHJ-fpEi_vuvKVL" version="24.0.4" type="device">
  <diagram name="PÃ¡gina-1" id="XNQjO4jO-kqnAk5QSl5o">
    <mxGraphModel dx="874" dy="542" grid="1" gridSize="10" guides="1" tooltips="1" connect="1" arrows="1" fold="1" page="1" pageScale="1" pageWidth="827" pageHeight="1169" math="0" shadow="0">
      <root>
        <mxCell id="0" />
        <mxCell id="1" parent="0" />
        <mxCell id="R6ljgZ-pBq3hNaBf2jd_-1" value="&amp;lt;&amp;lt;Interface&amp;gt;&amp;gt; DatabaseAccess" style="swimlane;fontStyle=1;align=center;verticalAlign=top;childLayout=stackLayout;horizontal=1;startSize=26;horizontalStack=0;resizeParent=1;resizeParentMax=0;resizeLast=0;collapsible=1;marginBottom=0;whiteSpace=wrap;html=1;labelBackgroundColor=none;fillColor=#F45B69;strokeColor=#028090;fontColor=#E4FDE1;rounded=1;" parent="1" vertex="1">
          <mxGeometry x="279" y="280" width="270" height="78" as="geometry" />
        </mxCell>
        <mxCell id="k6WnLueuM2FhuUmSUUMk-11" value="+ getSearchResult(queryString: String) : String[*]&lt;div&gt;+ insertNewRow(rowData: String): Integer&lt;/div&gt;" style="text;strokeColor=none;fillColor=none;align=left;verticalAlign=top;spacingLeft=4;spacingRight=4;overflow=hidden;rotatable=0;points=[[0,0.5],[1,0.5]];portConstraint=eastwest;whiteSpace=wrap;html=1;labelBackgroundColor=none;fontColor=#E4FDE1;rounded=1;" vertex="1" parent="R6ljgZ-pBq3hNaBf2jd_-1">
          <mxGeometry y="26" width="270" height="52" as="geometry" />
        </mxCell>
        <mxCell id="R6ljgZ-pBq3hNaBf2jd_-5" value="DatabaseRealAccess" style="swimlane;fontStyle=1;align=center;verticalAlign=top;childLayout=stackLayout;horizontal=1;startSize=26;horizontalStack=0;resizeParent=1;resizeParentMax=0;resizeLast=0;collapsible=1;marginBottom=0;whiteSpace=wrap;html=1;labelBackgroundColor=none;fillColor=#F45B69;strokeColor=#028090;fontColor=#E4FDE1;rounded=1;" parent="1" vertex="1">
          <mxGeometry x="40" y="430" width="310" height="130" as="geometry" />
        </mxCell>
        <mxCell id="R6ljgZ-pBq3hNaBf2jd_-6" value="- data: String[*]&lt;div&gt;- currentId:Integer&lt;/div&gt;" style="text;strokeColor=none;fillColor=none;align=left;verticalAlign=top;spacingLeft=4;spacingRight=4;overflow=hidden;rotatable=0;points=[[0,0.5],[1,0.5]];portConstraint=eastwest;whiteSpace=wrap;html=1;labelBackgroundColor=none;fontColor=#E4FDE1;rounded=1;" parent="R6ljgZ-pBq3hNaBf2jd_-5" vertex="1">
          <mxGeometry y="26" width="310" height="44" as="geometry" />
        </mxCell>
        <mxCell id="R6ljgZ-pBq3hNaBf2jd_-7" value="" style="line;strokeWidth=1;fillColor=none;align=left;verticalAlign=middle;spacingTop=-1;spacingLeft=3;spacingRight=3;rotatable=0;labelPosition=right;points=[];portConstraint=eastwest;strokeColor=#028090;labelBackgroundColor=none;fontColor=#E4FDE1;rounded=1;" parent="R6ljgZ-pBq3hNaBf2jd_-5" vertex="1">
          <mxGeometry y="70" width="310" height="8" as="geometry" />
        </mxCell>
        <mxCell id="R6ljgZ-pBq3hNaBf2jd_-8" value="+ getSearchResult(queryString: String) : String[*]&lt;div&gt;+ insertNewRow(rowData: String): Integer&lt;/div&gt;" style="text;strokeColor=none;fillColor=none;align=left;verticalAlign=top;spacingLeft=4;spacingRight=4;overflow=hidden;rotatable=0;points=[[0,0.5],[1,0.5]];portConstraint=eastwest;whiteSpace=wrap;html=1;labelBackgroundColor=none;fontColor=#E4FDE1;rounded=1;" parent="R6ljgZ-pBq3hNaBf2jd_-5" vertex="1">
          <mxGeometry y="78" width="310" height="52" as="geometry" />
        </mxCell>
        <mxCell id="k6WnLueuM2FhuUmSUUMk-7" style="edgeStyle=orthogonalEdgeStyle;rounded=1;orthogonalLoop=1;jettySize=auto;html=1;labelBackgroundColor=none;strokeColor=#028090;fontColor=default;" edge="1" parent="1" source="k6WnLueuM2FhuUmSUUMk-1" target="R6ljgZ-pBq3hNaBf2jd_-6">
          <mxGeometry relative="1" as="geometry">
            <mxPoint x="827" y="585" as="sourcePoint" />
          </mxGeometry>
        </mxCell>
        <mxCell id="k6WnLueuM2FhuUmSUUMk-1" value="DatabaseAccessProxy" style="swimlane;fontStyle=1;align=center;verticalAlign=top;childLayout=stackLayout;horizontal=1;startSize=26;horizontalStack=0;resizeParent=1;resizeParentMax=0;resizeLast=0;collapsible=1;marginBottom=0;whiteSpace=wrap;html=1;labelBackgroundColor=none;fillColor=#F45B69;strokeColor=#028090;fontColor=#E4FDE1;rounded=1;" vertex="1" parent="1">
          <mxGeometry x="480" y="430" width="306" height="190" as="geometry" />
        </mxCell>
        <mxCell id="k6WnLueuM2FhuUmSUUMk-2" value="- password : String&lt;div&gt;- isLogged : boolean&lt;/div&gt;" style="text;strokeColor=none;fillColor=none;align=left;verticalAlign=top;spacingLeft=4;spacingRight=4;overflow=hidden;rotatable=0;points=[[0,0.5],[1,0.5]];portConstraint=eastwest;whiteSpace=wrap;html=1;labelBackgroundColor=none;fontColor=#E4FDE1;rounded=1;" vertex="1" parent="k6WnLueuM2FhuUmSUUMk-1">
          <mxGeometry y="26" width="306" height="34" as="geometry" />
        </mxCell>
        <mxCell id="k6WnLueuM2FhuUmSUUMk-3" value="" style="line;strokeWidth=1;fillColor=none;align=left;verticalAlign=middle;spacingTop=-1;spacingLeft=3;spacingRight=3;rotatable=0;labelPosition=right;points=[];portConstraint=eastwest;strokeColor=#028090;labelBackgroundColor=none;fontColor=#E4FDE1;rounded=1;" vertex="1" parent="k6WnLueuM2FhuUmSUUMk-1">
          <mxGeometry y="60" width="306" height="8" as="geometry" />
        </mxCell>
        <mxCell id="k6WnLueuM2FhuUmSUUMk-10" value="&lt;div&gt;+&amp;lt;&amp;lt;create&amp;gt;&amp;gt; DatabaseAccessProxy(password:String, database DatabaseAccess)&lt;/div&gt;+ getSearchResult(queryString: String) : String[*]&lt;div&gt;+ insertNewRow(rowData: String): Integer&lt;/div&gt;&lt;div&gt;+ login(password : String): boolean&lt;/div&gt;&lt;div&gt;+ logout():boolean&lt;br&gt;&lt;/div&gt;&lt;div&gt;&lt;br&gt;&lt;/div&gt;" style="text;strokeColor=none;fillColor=none;align=left;verticalAlign=top;spacingLeft=4;spacingRight=4;overflow=hidden;rotatable=0;points=[[0,0.5],[1,0.5]];portConstraint=eastwest;whiteSpace=wrap;html=1;labelBackgroundColor=none;fontColor=#E4FDE1;rounded=1;" vertex="1" parent="k6WnLueuM2FhuUmSUUMk-1">
          <mxGeometry y="68" width="306" height="122" as="geometry" />
        </mxCell>
        <mxCell id="k6WnLueuM2FhuUmSUUMk-5" value="" style="endArrow=block;dashed=1;endFill=0;endSize=12;html=1;rounded=1;labelBackgroundColor=none;strokeColor=#028090;fontColor=default;" edge="1" parent="1" source="R6ljgZ-pBq3hNaBf2jd_-1" target="k6WnLueuM2FhuUmSUUMk-1">
          <mxGeometry width="160" relative="1" as="geometry">
            <mxPoint x="340" y="330" as="sourcePoint" />
            <mxPoint x="500" y="330" as="targetPoint" />
          </mxGeometry>
        </mxCell>
        <mxCell id="k6WnLueuM2FhuUmSUUMk-6" value="" style="endArrow=block;dashed=1;endFill=0;endSize=12;html=1;rounded=1;labelBackgroundColor=none;strokeColor=#028090;fontColor=default;" edge="1" parent="1" source="R6ljgZ-pBq3hNaBf2jd_-1" target="R6ljgZ-pBq3hNaBf2jd_-5">
          <mxGeometry width="160" relative="1" as="geometry">
            <mxPoint x="432" y="320" as="sourcePoint" />
            <mxPoint x="485" y="440" as="targetPoint" />
          </mxGeometry>
        </mxCell>
        <mxCell id="k6WnLueuM2FhuUmSUUMk-8" value="&lt;div&gt;1&lt;/div&gt;- realAccess" style="text;html=1;align=center;verticalAlign=middle;resizable=0;points=[];autosize=1;strokeColor=none;fillColor=none;labelBackgroundColor=none;fontColor=#E4FDE1;rounded=1;" vertex="1" parent="1">
          <mxGeometry x="369" y="445" width="90" height="40" as="geometry" />
        </mxCell>
        <mxCell id="k6WnLueuM2FhuUmSUUMk-12" value="Proxy" style="html=1;whiteSpace=wrap;strokeColor=#B20000;fontColor=#ffffff;fillColor=#e51400;rounded=1;sketch=1;curveFitting=1;jiggle=2;direction=west;" vertex="1" parent="1">
          <mxGeometry x="670" y="390" width="80" height="30" as="geometry" />
        </mxCell>
        <mxCell id="k6WnLueuM2FhuUmSUUMk-13" value="Real Subject" style="html=1;whiteSpace=wrap;strokeColor=#B20000;fontColor=#ffffff;fillColor=#e51400;rounded=1;sketch=1;curveFitting=1;jiggle=2;direction=west;" vertex="1" parent="1">
          <mxGeometry x="50" y="390" width="80" height="30" as="geometry" />
        </mxCell>
        <mxCell id="k6WnLueuM2FhuUmSUUMk-14" value="Subject" style="html=1;whiteSpace=wrap;strokeColor=#B20000;fontColor=#ffffff;fillColor=#e51400;rounded=1;sketch=1;curveFitting=1;jiggle=2;direction=west;" vertex="1" parent="1">
          <mxGeometry x="459" y="240" width="80" height="30" as="geometry" />
        </mxCell>
      </root>
    </mxGraphModel>
  </diagram>
</mxfile>
